<?xml version="1.0" encoding="UTF-8" standalone="no"?>
<!DOCTYPE svg PUBLIC "-//W3C//DTD SVG 1.1//EN" "http://www.w3.org/Graphics/SVG/1.1/DTD/svg11.dtd">
<svg version="1.1" xmlns="http://www.w3.org/2000/svg" xmlns:xlink="http://www.w3.org/1999/xlink" preserveAspectRatio="xMidYMid meet" viewBox="0 0 640 640" width="640" height="640"><defs><path d="M370.54 291.08C462.52 320.36 499.68 291.06 546.95 331.98C594.23 372.89 588.07 444.76 565.98 482.12C543.89 519.47 506.69 568.66 408.07 587.71C309.45 606.76 245.18 592.37 146.19 526.41C47.2 460.45 35.4 356.11 42.78 269.69C50.17 183.28 134.63 147.02 181.04 161.05C227.45 175.09 278.57 261.81 370.54 291.08Z" id="f1Nqk3htUb"></path><path d="M240.38 549.28L509.3 479.91L416.61 94.54L145.09 135.65L240.38 549.28Z" id="a1IKUpqnT8"></path><path d="M162.79 150.12C162.79 153.02 160.66 155.38 158.05 155.38C155.43 155.38 153.31 153.02 153.31 150.12C153.31 147.21 155.43 144.86 158.05 144.86C160.66 144.86 162.79 147.21 162.79 150.12Z" id="e6NeRTTAS"></path><path d="M168.57 168.33C168.57 171.24 166.45 173.6 163.84 173.6C161.22 173.6 159.1 171.24 159.1 168.33C159.1 165.43 161.22 163.07 163.84 163.07C166.45 163.07 168.57 165.43 168.57 168.33Z" id="aUWCPpQcz"></path><path d="M174.44 185.88C174.44 188.78 172.32 191.14 169.7 191.14C167.09 191.14 164.96 188.78 164.96 185.88C164.96 182.97 167.09 180.61 169.7 180.61C172.32 180.61 174.44 182.97 174.44 185.88Z" id="d24X036gmI"></path><path d="M179.76 204.97C179.76 207.87 177.64 210.23 175.03 210.23C172.41 210.23 170.29 207.87 170.29 204.97C170.29 202.06 172.41 199.7 175.03 199.7C177.64 199.7 179.76 202.06 179.76 204.97Z" id="a1nbzGwsJ7"></path><path d="M184.81 226.1C184.64 229 182.38 231.23 179.77 231.07C177.16 230.91 175.18 228.43 175.36 225.53C175.53 222.63 177.8 220.4 180.41 220.56C183.02 220.72 184.99 223.2 184.81 226.1Z" id="h3Xwo7tYUO"></path><path d="M189.49 244.63C189.31 247.53 187.05 249.76 184.44 249.6C181.83 249.44 179.85 246.96 180.03 244.06C180.21 241.16 182.47 238.94 185.08 239.09C187.69 239.25 189.66 241.74 189.49 244.63Z" id="f3pCq23sE"></path><path d="M194.27 262.5C194.1 265.4 191.84 267.63 189.23 267.47C186.62 267.31 184.64 264.83 184.82 261.93C184.99 259.03 187.26 256.8 189.87 256.96C192.48 257.12 194.45 259.6 194.27 262.5Z" id="dpkIJaZQM"></path><path d="M198.43 281.88C198.25 284.78 195.99 287 193.38 286.85C190.77 286.69 188.8 284.2 188.97 281.31C189.15 278.41 191.41 276.18 194.02 276.34C196.63 276.5 198.61 278.98 198.43 281.88Z" id="b4BL3CCC7l"></path><path d="M202.94 302.71C202.76 305.61 200.5 307.83 197.89 307.68C195.28 307.52 193.31 305.03 193.48 302.13C193.66 299.24 195.92 297.01 198.53 297.17C201.14 297.33 203.12 299.81 202.94 302.71Z" id="a34htGh7Ec"></path><path d="M208.5 320.57C208.33 323.47 206.07 325.7 203.46 325.54C200.85 325.38 198.87 322.9 199.05 320C199.22 317.1 201.49 314.87 204.1 315.03C206.71 315.19 208.68 317.67 208.5 320.57Z" id="b49kHLhQFh"></path><path d="M212.4 339.11C212.22 342.01 209.96 344.23 207.35 344.08C204.74 343.92 202.77 341.43 202.94 338.53C203.12 335.64 205.38 333.41 207.99 333.57C210.6 333.73 212.58 336.21 212.4 339.11Z" id="aDzLRji33"></path><path d="M216.56 358.49C216.38 361.39 214.12 363.61 211.51 363.45C208.9 363.29 206.92 360.81 207.1 357.91C207.28 355.01 209.54 352.79 212.15 352.95C214.76 353.1 216.73 355.59 216.56 358.49Z" id="bDislCjC3"></path><path d="M221.73 380.88C221.56 383.78 219.3 386 216.69 385.85C214.08 385.69 212.1 383.2 212.28 380.3C212.45 377.41 214.72 375.18 217.33 375.34C219.93 375.5 221.91 377.98 221.73 380.88Z" id="fmiaDFnHS"></path><path d="M227.3 398.74C227.12 401.64 224.86 403.87 222.25 403.71C219.64 403.55 217.67 401.07 217.84 398.17C218.02 395.27 220.28 393.04 222.89 393.2C225.5 393.36 227.48 395.84 227.3 398.74Z" id="b1md2nUvAf"></path><path d="M231.19 417.28C231.02 420.18 228.76 422.4 226.15 422.25C223.54 422.09 221.56 419.6 221.74 416.7C221.91 413.81 224.18 411.58 226.79 411.74C229.39 411.9 231.37 414.38 231.19 417.28Z" id="f25mDWZtvG"></path><path d="M235.35 436.66C235.17 439.56 232.91 441.78 230.3 441.62C227.69 441.46 225.72 438.98 225.89 436.08C226.07 433.18 228.33 430.96 230.94 431.12C233.55 431.27 235.53 433.76 235.35 436.66Z" id="ayrW13nf4"></path><path d="M240.53 457.71C240.35 460.61 238.09 462.83 235.48 462.68C232.87 462.52 230.9 460.03 231.07 457.13C231.25 454.24 233.51 452.01 236.12 452.17C238.73 452.33 240.7 454.81 240.53 457.71Z" id="at5YKyArq"></path><path d="M246.09 475.57C245.92 478.47 243.66 480.7 241.05 480.54C238.44 480.38 236.46 477.9 236.64 475C236.81 472.1 239.08 469.87 241.69 470.03C244.29 470.19 246.27 472.67 246.09 475.57Z" id="c1iBysagyq"></path><path d="M249.99 494.11C249.81 497.01 247.55 499.23 244.94 499.08C242.33 498.92 240.36 496.43 240.53 493.53C240.71 490.64 242.97 488.41 245.58 488.57C248.19 488.73 250.16 491.21 249.99 494.11Z" id="d7lhjD2c2"></path><path d="M252.58 513.49C252.41 516.39 250.14 518.61 247.53 518.45C244.93 518.29 242.95 515.81 243.13 512.91C243.3 510.01 245.56 507.79 248.17 507.95C250.78 508.1 252.76 510.59 252.58 513.49Z" id="a1rYjsK1Al"></path><path d="M256.64 529.6C256.47 532.5 254.21 534.73 251.6 534.57C248.99 534.41 247.01 531.93 247.19 529.03C247.36 526.13 249.63 523.9 252.24 524.06C254.85 524.22 256.82 526.7 256.64 529.6Z" id="amBAA6rku"></path><path d="M267.97 142.41L173.51 153.51" id="h5WnRqGIh5"></path><path d="M402.67 141.65L179.38 169.33" id="a6oXvsr8L"></path><path d="M406.84 154.98L183.54 182.66" id="c4ZwXbpnxO"></path><path d="M411.84 169.15L188.54 196.83" id="a3v7GJ6dj"></path><path d="M415.17 184.98L191.88 212.66" id="e94paJcD"></path><path d="M292.97 231.58L198.51 242.68" id="bkMYUmSYj"></path><path d="M427.67 230.82L204.38 258.49" id="b1F64l6cxl"></path><path d="M431.84 244.15L208.54 271.83" id="c1rc5yCy9n"></path><path d="M436.84 258.32L213.54 285.99" id="b324rHa8hv"></path><path d="M440.17 274.15L216.88 301.83" id="d8zH0DbwX"></path><path d="M317.97 324.91L223.51 336.01" id="d4JtgCtm"></path><path d="M449.34 322.48L226.04 350.16" id="f1qzLJdvm0"></path><path d="M454.34 338.32L231.04 365.99" id="a125JpWoEt"></path><path d="M460.17 352.48L236.88 380.16" id="h5c8LCBD4K"></path><path d="M462.67 368.32L239.38 395.99" id="bjKo55Drv"></path><path d="M338.81 410.75L244.34 421.85" id="e43tj8Ybap"></path><path d="M479.34 435.82L256.04 463.49" id="ciOI2uQ7f"></path><path d="M482.67 454.15L259.38 481.83" id="anIehlXQb"></path><path d="M472.67 407.48L249.38 435.16" id="lKyZcQciJ"></path><path d="M475.17 420.82L251.88 448.49" id="jlUdo4Aq8"></path><path d="M294.45 140.04L294.45 140.04L289.35 144.63L279.91 136.13L285.01 131.55L289.35 135.46L302.31 123.8L307.41 128.38L294.45 140.04Z" id="cgNzn1faK"></path><path d="M351.95 408.38L351.95 408.38L346.85 412.96L337.41 404.47L342.51 399.88L346.85 403.79L359.81 392.13L364.91 396.72L351.95 408.38Z" id="b2UcDJ0Tb8"></path><path d="M314.45 227.54L314.45 227.54L309.35 232.13L299.91 223.63L305.01 219.05L309.35 222.96L322.31 211.3L327.41 215.88L314.45 227.54Z" id="b1dpCnkEaV"></path><path d="M335.67 319.64L342.33 325.54L339.53 329.65L332.87 323.76L327.87 331.11L324.14 327.81L329.14 320.45L322.48 314.56L325.28 310.44L331.94 316.34L336.95 308.98L340.68 312.28L335.67 319.64Z" id="b18rQF10Cx"></path></defs><g><g><g><use xlink:href="#f1Nqk3htUb" opacity="1" fill="#fcd13b" fill-opacity="1"></use></g><g><use xlink:href="#a1IKUpqnT8" opacity="1" fill="#fffce4" fill-opacity="1"></use></g><g><use xlink:href="#e6NeRTTAS" opacity="1" fill="#ffffff" fill-opacity="1"></use></g><g><use xlink:href="#aUWCPpQcz" opacity="1" fill="#ffffff" fill-opacity="1"></use></g><g><use xlink:href="#d24X036gmI" opacity="1" fill="#ffffff" fill-opacity="1"></use></g><g><use xlink:href="#a1nbzGwsJ7" opacity="1" fill="#ffffff" fill-opacity="1"></use></g><g><use xlink:href="#h3Xwo7tYUO" opacity="1" fill="#ffffff" fill-opacity="1"></use></g><g><use xlink:href="#f3pCq23sE" opacity="1" fill="#ffffff" fill-opacity="1"></use></g><g><use xlink:href="#dpkIJaZQM" opacity="1" fill="#ffffff" fill-opacity="1"></use></g><g><use xlink:href="#b4BL3CCC7l" opacity="1" fill="#ffffff" fill-opacity="1"></use></g><g><use xlink:href="#a34htGh7Ec" opacity="1" fill="#ffffff" fill-opacity="1"></use></g><g><use xlink:href="#b49kHLhQFh" opacity="1" fill="#ffffff" fill-opacity="1"></use></g><g><use xlink:href="#aDzLRji33" opacity="1" fill="#ffffff" fill-opacity="1"></use></g><g><use xlink:href="#bDislCjC3" opacity="1" fill="#ffffff" fill-opacity="1"></use></g><g><use xlink:href="#fmiaDFnHS" opacity="1" fill="#ffffff" fill-opacity="1"></use></g><g><use xlink:href="#b1md2nUvAf" opacity="1" fill="#ffffff" fill-opacity="1"></use></g><g><use xlink:href="#f25mDWZtvG" opacity="1" fill="#ffffff" fill-opacity="1"></use></g><g><use xlink:href="#ayrW13nf4" opacity="1" fill="#ffffff" fill-opacity="1"></use></g><g><use xlink:href="#at5YKyArq" opacity="1" fill="#ffffff" fill-opacity="1"></use></g><g><use xlink:href="#c1iBysagyq" opacity="1" fill="#ffffff" fill-opacity="1"></use></g><g><use xlink:href="#d7lhjD2c2" opacity="1" fill="#ffffff" fill-opacity="1"></use></g><g><use xlink:href="#a1rYjsK1Al" opacity="1" fill="#ffffff" fill-opacity="1"></use></g><g><use xlink:href="#amBAA6rku" opacity="1" fill="#ffffff" fill-opacity="1"></use></g><g><g><use xlink:href="#h5WnRqGIh5" opacity="1" fill-opacity="0" stroke="#000000" stroke-width="3" stroke-opacity="1"></use></g></g><g><g><use xlink:href="#a6oXvsr8L" opacity="1" fill-opacity="0" stroke="#000000" stroke-width="3" stroke-opacity="1"></use></g></g><g><g><use xlink:href="#c4ZwXbpnxO" opacity="1" fill-opacity="0" stroke="#000000" stroke-width="3" stroke-opacity="1"></use></g></g><g><g><use xlink:href="#a3v7GJ6dj" opacity="1" fill-opacity="0" stroke="#000000" stroke-width="3" stroke-opacity="1"></use></g></g><g><g><use xlink:href="#e94paJcD" opacity="1" fill-opacity="0" stroke="#000000" stroke-width="3" stroke-opacity="1"></use></g></g><g><g><use xlink:href="#bkMYUmSYj" opacity="1" fill-opacity="0" stroke="#000000" stroke-width="3" stroke-opacity="1"></use></g></g><g><g><use xlink:href="#b1F64l6cxl" opacity="1" fill-opacity="0" stroke="#000000" stroke-width="3" stroke-opacity="1"></use></g></g><g><g><use xlink:href="#c1rc5yCy9n" opacity="1" fill-opacity="0" stroke="#000000" stroke-width="3" stroke-opacity="1"></use></g></g><g><g><use xlink:href="#b324rHa8hv" opacity="1" fill-opacity="0" stroke="#000000" stroke-width="3" stroke-opacity="1"></use></g></g><g><g><use xlink:href="#d8zH0DbwX" opacity="1" fill-opacity="0" stroke="#000000" stroke-width="3" stroke-opacity="1"></use></g></g><g><g><use xlink:href="#d4JtgCtm" opacity="1" fill-opacity="0" stroke="#000000" stroke-width="3" stroke-opacity="1"></use></g></g><g><g><use xlink:href="#f1qzLJdvm0" opacity="1" fill-opacity="0" stroke="#000000" stroke-width="3" stroke-opacity="1"></use></g></g><g><g><use xlink:href="#a125JpWoEt" opacity="1" fill-opacity="0" stroke="#000000" stroke-width="3" stroke-opacity="1"></use></g></g><g><g><use xlink:href="#h5c8LCBD4K" opacity="1" fill-opacity="0" stroke="#000000" stroke-width="3" stroke-opacity="1"></use></g></g><g><g><use xlink:href="#bjKo55Drv" opacity="1" fill-opacity="0" stroke="#000000" stroke-width="3" stroke-opacity="1"></use></g></g><g><g><use xlink:href="#e43tj8Ybap" opacity="1" fill-opacity="0" stroke="#000000" stroke-width="3" stroke-opacity="1"></use></g></g><g><g><use xlink:href="#ciOI2uQ7f" opacity="1" fill-opacity="0" stroke="#000000" stroke-width="3" stroke-opacity="1"></use></g></g><g><g><use xlink:href="#anIehlXQb" opacity="1" fill-opacity="0" stroke="#000000" stroke-width="3" stroke-opacity="1"></use></g></g><g><g><use xlink:href="#lKyZcQciJ" opacity="1" fill-opacity="0" stroke="#000000" stroke-width="3" stroke-opacity="1"></use></g></g><g><g><use xlink:href="#jlUdo4Aq8" opacity="1" fill-opacity="0" stroke="#000000" stroke-width="3" stroke-opacity="1"></use></g></g><g><use xlink:href="#cgNzn1faK" opacity="1" fill="#72ff43" fill-opacity="1"></use></g><g><use xlink:href="#b2UcDJ0Tb8" opacity="1" fill="#72ff43" fill-opacity="1"></use></g><g><use xlink:href="#b1dpCnkEaV" opacity="1" fill="#72ff43" fill-opacity="1"></use></g><g><use xlink:href="#b18rQF10Cx" opacity="1" fill="#fe0101" fill-opacity="1"></use></g></g></g></svg>